HIERARCHY
ROOT hip
{
	OFFSET 0.000000 0.000000 0.000000 
	CHANNELS 6 Xposition Yposition Zposition Xrotation Zrotation Yrotation
	JOINT abdomen
	{
		OFFSET 0.000000 3.402643 0.000000 
		CHANNELS 3 Xrotation Zrotation Yrotation
		JOINT chest
		{
			OFFSET 0.000000 8.438565 -0.680529 
			CHANNELS 3 Xrotation Zrotation Yrotation
			JOINT neck
			{
				OFFSET 0.000000 10.207942 -0.272212 
				CHANNELS 3 Xrotation Zrotation Yrotation
				JOINT head
				{
					OFFSET 0.000000 3.130431 0.000000 
					CHANNELS 3 Xrotation Zrotation Yrotation
					End Site
					{
						OFFSET 0.000000 3.130435 0.000000 
					}
				}
			}
			JOINT lCollar
			{
				OFFSET 3.470700 6.669187 -0.816635 
				CHANNELS 3 Yrotation Zrotation Xrotation
				JOINT lShldr
				{
					OFFSET 3.198488 0.000000 0.000000 
					CHANNELS 3 Zrotation Yrotation Xrotation
					JOINT lForeArm
					{
						OFFSET 10.139888 0.000000 0.000000 
						CHANNELS 3 Yrotation Zrotation Xrotation
						JOINT lHand
						{
							OFFSET 8.370511 0.000000 0.000000 
							CHANNELS 3 Zrotation Yrotation Xrotation
							End Site
							{
								OFFSET 4.083176 0.000000 0.000000 
							}
						}
					}
				}
			}
			JOINT rCollar
			{
				OFFSET -3.470700 6.669187 -0.816635 
				CHANNELS 3 Yrotation Zrotation Xrotation
				JOINT rShldr
				{
					OFFSET -3.198488 0.000000 0.000000 
					CHANNELS 3 Zrotation Yrotation Xrotation
					JOINT rForeArm
					{
						OFFSET -10.139888 0.000000 0.000000 
						CHANNELS 3 Yrotation Zrotation Xrotation
						JOINT rHand
						{
							OFFSET -8.370511 0.000000 0.000000 
							CHANNELS 3 Zrotation Yrotation Xrotation
							End Site
							{
								OFFSET -4.083176 0.000000 0.000000 
							}
						}
					}
				}
			}
		}
	}
	JOINT lThigh
	{
		OFFSET 5.308129 -1.633274 1.361059 
		CHANNELS 3 Xrotation Zrotation Yrotation
		JOINT lShin
		{
			OFFSET -2.041588 -20.007561 0.000000 
			CHANNELS 3 Xrotation Zrotation Yrotation
			JOINT lFoot
			{
				OFFSET 0.000000 -19.190928 -1.224953 
				CHANNELS 3 Xrotation Yrotation Zrotation
				End Site
				{
					OFFSET 0.000000 -2.449906 4.627600 
				}
			}
		}
	}
	JOINT rThigh
	{
		OFFSET -5.308129 -1.633274 1.361059 
		CHANNELS 3 Xrotation Zrotation Yrotation
		JOINT rShin
		{
			OFFSET 2.041588 -20.007561 0.000000 
			CHANNELS 3 Xrotation Zrotation Yrotation
			JOINT rFoot
			{
				OFFSET 0.000000 -19.190928 -1.224953 
				CHANNELS 3 Xrotation Yrotation Zrotation
				End Site
				{
					OFFSET 0.000000 -2.449906 4.627600 
				}
			}
		}
	}
}
MOTION
Frames: 10
Frame Time: 0.016667
7.788151 42.574516 14.678829 -2.981090 -2.379590 -1.927000 -17.646099 -2.108170 1.683240 20.664101 -0.429687 0.448340 27.685101 4.564890 -4.034520 14.144800 6.161530 -2.482660 2.000000 -2.000000 0.000000 -78.556999 -15.838600 168.171997 78.223198 -0.242753 0.133887 0.063478 -0.062968 -156.287003 -2.000000 2.000000 0.000000 3.587240 52.529099 93.335800 -102.774002 0.186779 0.114054 -0.055844 0.021484 -144.617004 -5.869211 6.696398 -10.340793 34.978203 3.540510 2.286693 -19.156538 6.542741 3.041291 -15.147386 -2.614097 22.162489 33.797672 -3.540283 -2.228054 -8.659658 -13.422007 -2.678311 
6.717152 42.620205 14.654003 -2.403420 -1.717240 0.667736 -17.154499 -1.864300 1.636140 20.800800 -0.136718 0.468144 27.521700 4.081680 -3.774590 13.895500 5.983870 -2.277880 2.000000 -2.000000 0.000000 100.767998 -165.384003 -7.006530 75.986900 -0.247955 0.132697 0.052427 -0.049393 -154.850998 -2.000000 2.000000 0.000000 15.927000 53.491699 104.637001 -95.791397 0.202038 0.116547 -0.055797 0.021132 -144.490005 -7.890626 7.099629 -11.586654 36.371017 3.479080 2.363441 -18.703011 5.397296 2.631974 -14.759705 -2.761202 21.913469 33.385262 -3.528481 -2.198991 -10.548880 -13.218874 -3.131141 
5.576682 42.457916 14.502122 -1.396790 -1.191050 3.320050 -16.690100 -1.678070 2.018600 20.927700 -0.380851 0.690828 26.570499 4.264130 -3.699800 13.296500 5.985960 -2.214650 2.000000 -2.000000 0.000000 100.845001 -165.751007 -0.581579 73.662598 -0.253307 0.131246 0.050938 -0.044530 -153.035004 -2.000000 2.000000 0.000000 27.112400 51.579498 114.490997 -88.281799 0.218948 0.136664 -0.055616 0.019721 -143.981995 -10.299992 7.787463 -12.359102 36.598732 3.462390 2.375394 -16.097116 4.316980 2.133124 -15.207540 -2.576126 20.961620 33.446877 -3.421596 -2.236356 -13.161055 -13.850091 -4.005010 
4.438427 42.443748 14.276772 0.009767 -1.035160 6.025040 -15.787700 -1.263450 1.924610 21.630899 -0.351501 0.716006 25.236700 4.457010 -3.378640 12.789500 6.188460 -2.062270 2.000000 -2.000000 0.000000 100.366997 -164.932007 4.381260 70.498596 -0.260490 0.128924 0.049483 -0.039145 -151.042999 -2.000000 2.000000 0.000000 34.555698 49.656700 122.218002 -80.039597 0.238497 0.134664 -0.055583 0.019450 -143.884995 -13.769295 8.747927 -13.498858 37.333183 3.394588 2.434593 -13.237150 2.792558 1.501556 -16.047922 -2.008273 19.656767 32.951382 -3.273435 -2.239208 -14.679065 -15.672902 -5.003251 
3.359272 42.577465 13.918638 2.266290 -1.385630 8.909790 -15.260000 -0.605181 1.404800 22.021500 -0.068337 0.574413 24.123100 3.871940 -3.254230 12.346500 6.138530 -1.961860 2.000000 -2.000000 0.000000 -80.824203 -15.897800 -171.514999 66.709503 -0.268907 0.125627 0.047712 -0.031275 -148.162003 -2.000000 2.000000 0.000000 40.500599 47.468201 129.914993 -71.631401 0.257933 0.129758 -0.055012 0.014011 -141.932007 -18.913174 9.318031 -15.291653 38.788303 3.176418 2.561493 -9.487562 0.976576 1.210126 -18.007698 -1.364891 19.051832 32.195816 -3.081735 -2.263167 -14.626593 -16.988111 -5.597322 
2.331534 42.741302 13.440864 4.894190 -1.469240 11.583000 -15.272800 -0.641230 0.920915 21.298901 -0.566359 0.353895 23.725901 3.811210 -3.126200 12.160000 6.141780 -1.884050 2.000000 -2.000000 0.000000 -81.184303 -16.222000 -168.145004 61.963402 -0.279111 0.120725 0.045642 -0.017957 -143.348007 -2.000000 2.000000 0.000000 46.853699 44.738499 138.852997 -63.809101 0.275191 0.122686 -0.054477 0.005003 -138.709000 -24.638634 9.015060 -16.441456 40.609089 2.887319 2.710587 -4.713087 0.202198 1.189782 -20.972776 -1.464715 17.747238 31.902287 -2.884826 -2.311476 -14.150898 -17.735031 -5.906037 
1.361607 42.898834 12.974435 7.460960 -0.154927 13.368400 -14.843400 -0.648158 0.845186 20.976601 0.029296 0.302954 22.618700 4.147940 -3.398580 11.789900 6.331940 -2.045320 2.000000 -2.000000 0.000000 -82.150002 -17.191299 -165.018005 57.090302 -0.289130 0.114831 0.044735 -0.005715 -138.962997 -2.000000 2.000000 0.000000 52.011398 41.966801 148.121994 -58.271999 0.286747 0.116291 -0.054474 0.004816 -135.154007 -28.651226 7.219668 -15.869664 40.608097 2.666370 2.788634 -0.176171 0.834280 1.289793 -24.081255 -2.736779 17.924643 32.574970 -2.740627 -2.389062 -14.305523 -18.303810 -6.261956 
0.507055 42.999985 12.578891 9.779180 1.587930 14.131200 -14.100300 -0.882356 1.212000 21.015600 0.371082 0.442489 21.367800 4.463560 -3.773610 11.418300 6.444690 -2.228770 2.000000 -2.000000 0.000000 -82.822701 -18.746401 -161.781998 51.904800 -0.299199 0.107649 0.044702 0.004730 -135.231995 -2.000000 2.000000 0.000000 56.569801 39.191799 158.054001 -54.746601 0.293761 0.111649 -0.054895 -0.002856 -132.410004 -30.928408 5.329533 -14.017313 39.441845 2.541299 2.785343 3.168455 2.479781 1.255592 -26.967390 -4.220449 19.071733 33.347679 -2.672644 -2.455014 -14.389414 -18.525728 -6.356081 
-0.199406 43.051849 12.252100 12.079500 2.215510 14.507200 -13.776700 -0.856867 1.388160 20.703100 0.478514 0.528649 20.913401 4.203320 -3.843150 11.279500 6.369450 -2.224640 2.000000 -2.000000 0.000000 -83.367302 -19.471201 -158.414993 47.090302 -0.307932 0.100191 0.045207 0.003809 -132.067993 -2.000000 2.000000 0.000000 61.523998 36.236000 169.468994 -52.021999 0.298979 0.107772 -0.055278 -0.007022 -130.916000 -32.800659 4.462447 -12.735330 37.858025 2.486302 2.738151 4.733601 4.530969 1.127791 -29.861183 -4.850876 19.426941 33.534069 -2.569769 -2.500805 -14.061013 -18.399704 -6.321296 
-0.776335 43.029583 11.970243 13.954100 2.018740 14.710500 -13.590400 -0.526427 1.274080 20.029301 0.673800 0.511377 21.237801 3.772820 -3.575840 11.474200 6.259740 -2.042120 2.000000 -2.000000 0.000000 -83.813004 -19.590300 -154.830002 42.549301 -0.315568 0.092508 0.046048 0.011502 -129.304993 -2.000000 2.000000 0.000000 -114.133003 146.369995 1.302890 -49.072701 0.304412 0.103300 -0.055752 -0.011042 -129.470993 -34.212589 4.250164 -12.613557 36.399284 2.453998 2.677602 5.022748 5.446748 1.119865 -32.289673 -4.774965 19.350681 33.445454 -2.470514 -2.542403 -13.711299 -18.088335 -6.198910 
